<?xml version="1.0" encoding="UTF-8"?>
<svg xmlns="http://www.w3.org/2000/svg" viewBox="0 0 1024 1024" width="1024" height="1024">
  <defs>
    <linearGradient id="paper" x1="0" y1="0" x2="0" y2="1">
      <stop offset="0" stop-color="#ffffff"/>
      <stop offset="1" stop-color="#dfe6ee"/>
    </linearGradient>
  </defs>

  <path d="M 232 96 H 660 L 832 268 V 928 a 32 32 0 0 1 -32 32 H 232 a 32 32 0 0 1 -32 -32 V 128 a 32 32 0 0 1 32 -32 z"
        fill="url(#paper)" stroke="#9ba6b3" stroke-width="6"/>
  <path d="M 660 96 V 240 a 28 28 0 0 0 28 28 H 832 z" fill="#bcc5d0" stroke="#9ba6b3" stroke-width="6"/>

  <rect x="280" y="600" width="472" height="200" rx="22" fill="#1f6feb"/>
  <text x="516" y="744" font-family="-apple-system, BlinkMacSystemFont, 'Segoe UI', sans-serif"
        font-weight="800" font-size="150" letter-spacing="-6" text-anchor="middle" fill="#ffffff">MD</text>

  <g stroke="#7a8593" stroke-width="10" stroke-linecap="round">
    <line x1="280" y1="360" x2="752" y2="360"/>
    <line x1="280" y1="430" x2="700" y2="430"/>
    <line x1="280" y1="500" x2="640" y2="500"/>
  </g>
</svg>
